<svg width="25" height="25" viewBox="0 0 25 25" fill="none" xmlns="http://www.w3.org/2000/svg">
<path fill-rule="evenodd" clip-rule="evenodd" d="M8.91675 4.25L20.1667 4.25C20.3657 4.25 20.5564 4.32902 20.6971 4.46967C20.8377 4.61032 20.9167 4.80109 20.9167 5V16.25C20.9167 16.6642 20.581 17 20.1667 17C19.7525 17 19.4167 16.6642 19.4167 16.25V6.81066L5.69708 20.5303C5.40418 20.8232 4.92931 20.8232 4.63642 20.5303C4.34352 20.2374 4.34352 19.7626 4.63642 19.4697L18.3561 5.75L8.91675 5.75C8.50253 5.75 8.16675 5.41421 8.16675 5C8.16675 4.58579 8.50253 4.25 8.91675 4.25Z" fill="#141414"/>
</svg>
