<svg width="20" height="20" viewBox="0 0 20 20" fill="none" xmlns="http://www.w3.org/2000/svg">
<path d="M8.60815 1.9429C9.38084 0.62493 11.2862 0.624932 12.0588 1.9429L13.7847 4.88664C14.0667 5.36761 14.5366 5.70904 15.0812 5.8286L18.4142 6.5603C19.9064 6.8879 20.4952 8.69996 19.4805 9.8421L17.2141 12.3931C16.8438 12.8099 16.6643 13.3624 16.7189 13.9173L17.053 17.3132C17.2025 18.8337 15.6611 19.9536 14.2613 19.3415L11.1348 17.9744C10.6239 17.751 10.0431 17.751 9.53222 17.9744L6.4057 19.3415C5.0059 19.9536 3.46447 18.8336 3.61403 17.3132L3.94809 13.9173C4.00267 13.3624 3.82316 12.8099 3.45287 12.3931L1.18652 9.8421C0.171832 8.69996 0.760608 6.8879 2.25284 6.5603L5.58582 5.8286C6.13039 5.70904 6.60033 5.36761 6.88231 4.88664L8.60815 1.9429Z" fill="#98989A"/>
</svg>
